<svg version="1.1" viewBox="0.0 0.0 96.0 38.3989501312336" fill="none" stroke="none" stroke-linecap="square" stroke-miterlimit="10" xmlns:xlink="http://www.w3.org/1999/xlink" xmlns="http://www.w3.org/2000/svg"><clipPath id="p.0"><path d="m0 0l96.0 0l0 38.39895l-96.0 0l0 -38.39895z" clip-rule="nonzero"/></clipPath><g clip-path="url(#p.0)"><path fill="#000000" fill-opacity="0.0" d="m0 0l96.0 0l0 38.39895l-96.0 0z" fill-rule="evenodd"/><path fill="#ffffff" d="m0 2.6246718E-7l96.0 0l0 38.80315l-96.0 0z" fill-rule="evenodd"/><path stroke="#980000" stroke-width="3.0" stroke-linejoin="round" stroke-linecap="butt" d="m0 2.6246718E-7l96.0 0l0 38.80315l-96.0 0z" fill-rule="evenodd"/><path fill="#000000" d="m21.694336 21.585949l1.890625 0.46875q-0.59375 2.34375 -2.140625 3.578125q-1.546875 1.21875 -3.796875 1.21875q-2.3125 0 -3.765625 -0.9375q-1.4375 -0.953125 -2.203125 -2.734375q-0.75 -1.796875 -0.75 -3.84375q0 -2.234375 0.84375 -3.890625q0.859375 -1.671875 2.4375 -2.53125q1.578125 -0.875 3.46875 -0.875q2.15625 0 3.609375 1.09375q1.46875 1.09375 2.046875 3.078125l-1.859375 0.4375q-0.5 -1.5625 -1.453125 -2.265625q-0.9375 -0.71875 -2.375 -0.71875q-1.65625 0 -2.765625 0.796875q-1.109375 0.78125 -1.5625 2.125q-0.4375 1.328125 -0.4375 2.734375q0 1.828125 0.53125 3.203125q0.53125 1.359375 1.65625 2.03125q1.125 0.671875 2.421875 0.671875q1.59375 0 2.703125 -0.921875q1.109375 -0.921875 1.5 -2.71875zm8.318359 5.015625l-5.546875 -14.3125l2.046875 0l3.71875 10.390625q0.453125 1.25 0.75 2.34375q0.328125 -1.171875 0.78125 -2.34375l3.859375 -10.390625l1.9375 0l-5.609375 14.3125l-1.9375 0zm18.271484 -2.3125l0 -3.921875l-3.90625 0l0 -1.640625l3.90625 0l0 -3.90625l1.65625 0l0 3.90625l3.890625 0l0 1.640625l-3.890625 0l0 3.921875l-1.65625 0zm13.767578 2.3125l0 -14.3125l4.921875 0q1.671875 0 2.5625 0.203125q1.21875 0.28125 2.09375 1.015625q1.125 0.96875 1.6875 2.453125q0.5625 1.484375 0.5625 3.40625q0 1.625 -0.375 2.890625q-0.375 1.25 -0.984375 2.078125q-0.59375 0.828125 -1.296875 1.3125q-0.703125 0.46875 -1.703125 0.71875q-1.0 0.234375 -2.3125 0.234375l-5.15625 0zm1.890625 -1.6875l3.0625 0q1.40625 0 2.203125 -0.265625q0.8125 -0.265625 1.296875 -0.75q0.671875 -0.671875 1.046875 -1.796875q0.375 -1.140625 0.375 -2.765625q0 -2.25 -0.734375 -3.453125q-0.734375 -1.203125 -1.796875 -1.609375q-0.75 -0.296875 -2.4375 -0.296875l-3.015625 0l0 10.9375zm12.474609 1.6875l0 -14.3125l1.890625 0l0 12.625l7.046875 0l0 1.6875l-8.9375 0z" fill-rule="nonzero"/></g></svg>