<svg version="1.1" viewBox="0.0 0.0 96.0 38.3989501312336" fill="none" stroke="none" stroke-linecap="square" stroke-miterlimit="10" xmlns:xlink="http://www.w3.org/1999/xlink" xmlns="http://www.w3.org/2000/svg"><clipPath id="p.0"><path d="m0 0l96.0 0l0 38.39895l-96.0 0l0 -38.39895z" clip-rule="nonzero"/></clipPath><g clip-path="url(#p.0)"><path fill="#000000" fill-opacity="0.0" d="m0 0l96.0 0l0 38.39895l-96.0 0z" fill-rule="evenodd"/><path fill="#ffffff" d="m0 2.6246718E-7l96.0 0l0 38.80315l-96.0 0z" fill-rule="evenodd"/><path stroke="#980000" stroke-width="3.0" stroke-linejoin="round" stroke-linecap="butt" d="m0 2.6246718E-7l96.0 0l0 38.80315l-96.0 0z" fill-rule="evenodd"/><path fill="#000000" d="m10.079102 26.601574l0 -14.3125l4.921875 0q1.671875 0 2.5625 0.203125q1.21875 0.28125 2.09375 1.015625q1.125 0.96875 1.6875 2.453125q0.5625 1.484375 0.5625 3.40625q0 1.625 -0.375 2.890625q-0.375 1.25 -0.984375 2.078125q-0.59375 0.828125 -1.296875 1.3125q-0.703125 0.46875 -1.703125 0.71875q-1.0 0.234375 -2.3125 0.234375l-5.15625 0zm1.890625 -1.6875l3.0625 0q1.40625 0 2.203125 -0.265625q0.8125 -0.265625 1.296875 -0.75q0.671875 -0.671875 1.046875 -1.796875q0.375 -1.140625 0.375 -2.765625q0 -2.25 -0.734375 -3.453125q-0.734375 -1.203125 -1.796875 -1.609375q-0.75 -0.296875 -2.4375 -0.296875l-3.015625 0l0 10.9375zm19.427734 -1.65625l1.8125 0.234375q-0.421875 1.578125 -1.59375 2.46875q-1.15625 0.875 -2.96875 0.875q-2.265625 0 -3.609375 -1.390625q-1.328125 -1.40625 -1.328125 -3.9375q0 -2.625 1.34375 -4.0625q1.34375 -1.453125 3.5 -1.453125q2.078125 0 3.390625 1.421875q1.328125 1.40625 1.328125 3.984375q0 0.15625 -0.015625 0.46875l-7.734375 0q0.09375 1.703125 0.96875 2.609375q0.875 0.90625 2.171875 0.90625q0.96875 0 1.640625 -0.5q0.6875 -0.515625 1.09375 -1.625zm-5.78125 -2.84375l5.796875 0q-0.109375 -1.296875 -0.65625 -1.953125q-0.84375 -1.015625 -2.1875 -1.015625q-1.203125 0 -2.03125 0.8125q-0.828125 0.796875 -0.921875 2.15625zm16.904297 2.84375l1.8125 0.234375q-0.421875 1.578125 -1.59375 2.46875q-1.15625 0.875 -2.96875 0.875q-2.265625 0 -3.609375 -1.390625q-1.328125 -1.40625 -1.328125 -3.9375q0 -2.625 1.34375 -4.0625q1.34375 -1.453125 3.5 -1.453125q2.078125 0 3.390625 1.421875q1.328125 1.40625 1.328125 3.984375q0 0.15625 -0.015625 0.46875l-7.734375 0q0.09375 1.703125 0.96875 2.609375q0.875 0.90625 2.171875 0.90625q0.96875 0 1.640625 -0.5q0.6875 -0.515625 1.09375 -1.625zm-5.78125 -2.84375l5.796875 0q-0.109375 -1.296875 -0.65625 -1.953125q-0.84375 -1.015625 -2.1875 -1.015625q-1.203125 0 -2.03125 0.8125q-0.828125 0.796875 -0.921875 2.15625zm9.794922 10.15625l0 -14.34375l1.609375 0l0 1.34375q0.5625 -0.78125 1.265625 -1.171875q0.71875 -0.40625 1.734375 -0.40625q1.328125 0 2.34375 0.6875q1.015625 0.6875 1.53125 1.9375q0.53125 1.234375 0.53125 2.71875q0 1.59375 -0.578125 2.875q-0.5625 1.265625 -1.65625 1.953125q-1.09375 0.671875 -2.296875 0.671875q-0.875 0 -1.578125 -0.375q-0.6875 -0.375 -1.140625 -0.9375l0 5.046875l-1.765625 0zm1.59375 -9.09375q0 2.0 0.8125 2.953125q0.8125 0.953125 1.96875 0.953125q1.171875 0 2.0 -0.984375q0.84375 -0.984375 0.84375 -3.078125q0 -1.96875 -0.828125 -2.953125q-0.8125 -1.0 -1.9375 -1.0q-1.125 0 -2.0 1.0625q-0.859375 1.046875 -0.859375 3.046875zm15.3515625 5.125l0 -14.3125l6.34375 0q1.90625 0 2.90625 0.390625q1.0 0.375 1.59375 1.359375q0.59375 0.96875 0.59375 2.15625q0 1.515625 -0.984375 2.5625q-0.984375 1.046875 -3.046875 1.328125q0.75 0.359375 1.140625 0.71875q0.828125 0.75 1.578125 1.90625l2.484375 3.890625l-2.375 0l-1.90625 -2.984375q-0.828125 -1.28125 -1.359375 -1.96875q-0.53125 -0.6875 -0.96875 -0.953125q-0.421875 -0.28125 -0.859375 -0.390625q-0.328125 -0.0625 -1.046875 -0.0625l-2.203125 0l0 6.359375l-1.890625 0zm1.890625 -8.0l4.078125 0q1.296875 0 2.015625 -0.265625q0.734375 -0.265625 1.109375 -0.859375q0.390625 -0.59375 0.390625 -1.28125q0 -1.015625 -0.734375 -1.671875q-0.734375 -0.65625 -2.328125 -0.65625l-4.53125 0l0 4.734375zm12.443359 8.0l0 -14.3125l1.890625 0l0 12.625l7.046875 0l0 1.6875l-8.9375 0z" fill-rule="nonzero"/></g></svg>