<svg version="1.1" viewBox="0.0 0.0 96.0 38.3989501312336" fill="none" stroke="none" stroke-linecap="square" stroke-miterlimit="10" xmlns:xlink="http://www.w3.org/1999/xlink" xmlns="http://www.w3.org/2000/svg"><clipPath id="p.0"><path d="m0 0l96.0 0l0 38.39895l-96.0 0l0 -38.39895z" clip-rule="nonzero"/></clipPath><g clip-path="url(#p.0)"><path fill="#000000" fill-opacity="0.0" d="m0 0l96.0 0l0 38.39895l-96.0 0z" fill-rule="evenodd"/><path fill="#ffffff" d="m0 2.6246718E-7l96.0 0l0 38.80315l-96.0 0z" fill-rule="evenodd"/><path stroke="#980000" stroke-width="3.0" stroke-linejoin="round" stroke-linecap="butt" d="m0 2.6246718E-7l96.0 0l0 38.80315l-96.0 0z" fill-rule="evenodd"/><path fill="#000000" d="m25.673828 20.992199l0 -1.6875l6.0625 -0.015625l0 5.3125q-1.40625 1.125 -2.890625 1.6875q-1.484375 0.5625 -3.046875 0.5625q-2.109375 0 -3.828125 -0.90625q-1.71875 -0.90625 -2.609375 -2.609375q-0.875 -1.71875 -0.875 -3.828125q0 -2.09375 0.875 -3.890625q0.875 -1.8125 2.515625 -2.6875q1.640625 -0.890625 3.78125 -0.890625q1.546875 0 2.796875 0.5q1.265625 0.5 1.96875 1.40625q0.71875 0.890625 1.09375 2.34375l-1.703125 0.46875q-0.328125 -1.09375 -0.8125 -1.71875q-0.46875 -0.625 -1.359375 -1.0q-0.890625 -0.375 -1.96875 -0.375q-1.3125 0 -2.265625 0.390625q-0.9375 0.390625 -1.515625 1.046875q-0.578125 0.640625 -0.90625 1.40625q-0.546875 1.328125 -0.546875 2.890625q0 1.90625 0.65625 3.203125q0.671875 1.28125 1.921875 1.90625q1.265625 0.625 2.671875 0.625q1.234375 0 2.40625 -0.46875q1.171875 -0.46875 1.78125 -1.015625l0 -2.65625l-4.203125 0zm15.728516 2.265625l1.8125 0.234375q-0.421875 1.578125 -1.59375 2.46875q-1.15625 0.875 -2.96875 0.875q-2.265625 0 -3.609375 -1.390625q-1.328125 -1.40625 -1.328125 -3.9375q0 -2.625 1.34375 -4.0625q1.34375 -1.453125 3.5 -1.453125q2.078125 0 3.390625 1.421875q1.328125 1.40625 1.328125 3.984375q0 0.15625 -0.015625 0.46875l-7.734375 0q0.09375 1.703125 0.96875 2.609375q0.875 0.90625 2.171875 0.90625q0.96875 0 1.640625 -0.5q0.6875 -0.515625 1.09375 -1.625zm-5.78125 -2.84375l5.796875 0q-0.109375 -1.296875 -0.65625 -1.953125q-0.84375 -1.015625 -2.1875 -1.015625q-1.203125 0 -2.03125 0.8125q-0.828125 0.796875 -0.921875 2.15625zm9.794922 6.1875l0 -10.375l1.59375 0l0 1.484375q1.140625 -1.71875 3.296875 -1.71875q0.9375 0 1.71875 0.34375q0.796875 0.328125 1.1875 0.875q0.390625 0.546875 0.546875 1.296875q0.09375 0.5 0.09375 1.71875l0 6.375l-1.765625 0l0 -6.3125q0 -1.078125 -0.203125 -1.609375q-0.203125 -0.53125 -0.734375 -0.84375q-0.515625 -0.3125 -1.21875 -0.3125q-1.125 0 -1.9375 0.71875q-0.8125 0.703125 -0.8125 2.6875l0 5.671875l-1.765625 0zm14.232422 0l5.5 -14.3125l2.046875 0l5.859375 14.3125l-2.15625 0l-1.671875 -4.34375l-5.984375 0l-1.578125 4.34375l-2.015625 0zm4.140625 -5.875l4.84375 0l-1.484375 -3.96875q-0.6875 -1.8125 -1.015625 -2.96875q-0.28125 1.375 -0.78125 2.734375l-1.5625 4.203125zm11.089844 5.875l0 -14.3125l1.90625 0l0 14.3125l-1.90625 0z" fill-rule="nonzero"/></g></svg>