<svg version="1.1" viewBox="0.0 0.0 96.0 38.3989501312336" fill="none" stroke="none" stroke-linecap="square" stroke-miterlimit="10" xmlns:xlink="http://www.w3.org/1999/xlink" xmlns="http://www.w3.org/2000/svg"><clipPath id="p.0"><path d="m0 0l96.0 0l0 38.39895l-96.0 0l0 -38.39895z" clip-rule="nonzero"/></clipPath><g clip-path="url(#p.0)"><path fill="#000000" fill-opacity="0.0" d="m0 0l96.0 0l0 38.39895l-96.0 0z" fill-rule="evenodd"/><path fill="#ffffff" d="m0 2.6246718E-7l96.0 0l0 38.80315l-96.0 0z" fill-rule="evenodd"/><path stroke="#980000" stroke-width="3.0" stroke-linejoin="round" stroke-linecap="butt" d="m0 2.6246718E-7l96.0 0l0 38.80315l-96.0 0z" fill-rule="evenodd"/><path fill="#000000" d="m6.0791016 26.601574l0 -14.3125l1.9375 0l7.515625 11.234375l0 -11.234375l1.8125 0l0 14.3125l-1.9375 0l-7.515625 -11.25l0 11.25l-1.8125 0zm14.380859 0l0 -14.3125l1.890625 0l0 12.625l7.046875 0l0 1.6875l-8.9375 0zm11.201172 0l0 -14.3125l5.390625 0q1.4375 0 2.1875 0.125q1.046875 0.1875 1.765625 0.6875q0.71875 0.484375 1.140625 1.375q0.4375 0.890625 0.4375 1.953125q0 1.828125 -1.171875 3.09375q-1.15625 1.25 -4.1875 1.25l-3.671875 0l0 5.828125l-1.890625 0zm1.890625 -7.515625l3.703125 0q1.828125 0 2.59375 -0.671875q0.78125 -0.6875 0.78125 -1.9375q0 -0.890625 -0.453125 -1.53125q-0.453125 -0.640625 -1.1875 -0.84375q-0.484375 -0.125 -1.78125 -0.125l-3.65625 0l0 5.109375zm20.113281 5.203125l0 -3.921875l-3.90625 0l0 -1.640625l3.90625 0l0 -3.90625l1.65625 0l0 3.90625l3.890625 0l0 1.640625l-3.890625 0l0 3.921875l-1.65625 0zm13.767578 2.3125l0 -14.3125l4.921875 0q1.671875 0 2.5625 0.203125q1.21875 0.28125 2.09375 1.015625q1.125 0.96875 1.6875 2.453125q0.5625 1.484375 0.5625 3.40625q0 1.625 -0.375 2.890625q-0.375 1.25 -0.984375 2.078125q-0.59375 0.828125 -1.296875 1.3125q-0.703125 0.46875 -1.703125 0.71875q-1.0 0.234375 -2.3125 0.234375l-5.15625 0zm1.890625 -1.6875l3.0625 0q1.40625 0 2.203125 -0.265625q0.8125 -0.265625 1.296875 -0.75q0.671875 -0.671875 1.046875 -1.796875q0.375 -1.140625 0.375 -2.765625q0 -2.25 -0.734375 -3.453125q-0.734375 -1.203125 -1.796875 -1.609375q-0.75 -0.296875 -2.4375 -0.296875l-3.015625 0l0 10.9375zm12.474609 1.6875l0 -14.3125l1.890625 0l0 12.625l7.046875 0l0 1.6875l-8.9375 0z" fill-rule="nonzero"/></g></svg>